<?xml version="1.0" encoding="utf-8"?>
<!-- Generator: Adobe Illustrator 23.0.3, SVG Export Plug-In . SVG Version: 6.00 Build 0)  -->
<svg version="1.2" baseProfile="tiny" id="Calque_1"
	 xmlns="http://www.w3.org/2000/svg" xmlns:xlink="http://www.w3.org/1999/xlink" x="0px" y="0px" width="292.4px" height="196.6px"
	 viewBox="0 0 292.4 196.6" xml:space="preserve">
<g id="page1">
	<path fill="#FFFFFF" d="M16.9,48.5h275v-34h-275V48.5z"/>
	<path fill="none" stroke="#AAAAAA" stroke-width="0.9963" stroke-miterlimit="10" d="M16.9,48.5h275v-34h-275V48.5z"/>
	<g transform="matrix(1 0 0 1 -127.5607 2.1447)">
		<g>
			<path id="g1-67" d="M160.2,31.1l-0.1-0.7c-0.3,0.2-0.6,0.4-0.9,0.5c-0.3,0.1-0.7,0.1-1,0.1c-0.6,0-1.2-0.3-1.6-0.9
				c-0.5-0.6-0.7-1.3-0.7-2.1s0.2-1.5,0.7-2.1c0.4-0.5,1-0.9,1.6-0.9c0.3,0,0.6,0,0.9,0.1c0.3,0.1,0.6,0.2,0.8,0.4l0.1-0.8
				c-0.3-0.1-0.6-0.2-0.9-0.3c-0.3-0.1-0.6-0.1-0.9-0.1c-0.9,0-1.7,0.4-2.3,1c-0.6,0.7-0.9,1.6-0.9,2.5c0,0.9,0.3,1.8,0.9,2.5
				c0.6,0.6,1.4,1,2.3,1c0.3,0,0.7,0,1-0.1C159.6,31.5,159.9,31.3,160.2,31.1z"/>
		</g>
		<g>
			<path id="g1-111" d="M165.4,29.4c0-1.3-1-2.4-2.2-2.4c-1.2,0-2.2,1.1-2.2,2.4c0,1.3,1,2.3,2.2,2.3
				C164.4,31.7,165.4,30.6,165.4,29.4z M164.7,29.3c0,1.2-0.7,1.8-1.4,1.8c-0.7,0-1.4-0.6-1.4-1.8c0-1.2,0.8-1.7,1.4-1.7
				C163.9,27.6,164.7,28.1,164.7,29.3z"/>
		</g>
		<g>
			<path id="g1-117" d="M170.1,31.5v-4.4h-0.8V30c0,0.7-0.6,1.1-1.2,1.1c-0.7,0-0.8-0.3-0.8-0.7v-3.3h-0.8v3.3
				c0,0.7,0.2,1.2,1.1,1.2c0.5,0,1.2-0.2,1.7-0.6v0.5H170.1z"/>
		</g>
		<g>
			<path id="g1-114" d="M174.1,27.7V27c-0.9,0-1.4,0.5-1.7,1v-0.9h-0.7v4.5h0.7v-2.1C172.4,28.4,173.2,27.7,174.1,27.7z"/>
		</g>
		<g>
			<path id="g1-115" d="M177.9,30.3c0-0.5-0.4-0.9-0.4-0.9c-0.4-0.3-0.7-0.4-1.2-0.5c-0.5-0.1-1-0.2-1-0.7c0-0.6,0.7-0.6,0.8-0.6
				c0.3,0,0.8,0,1.4,0.4l0.1-0.6c-0.5-0.2-0.9-0.3-1.4-0.3c-0.2,0-1.7,0-1.7,1.3c0,0.5,0.3,0.8,0.5,1c0.3,0.2,0.5,0.3,1.1,0.4
				c0.4,0.1,0.9,0.2,0.9,0.7c0,0.7-0.8,0.7-0.9,0.7c-0.8,0-1.4-0.4-1.5-0.5l-0.1,0.7c0.3,0.2,0.9,0.4,1.7,0.4c0.2,0,0.7,0,1.2-0.3
				C177.7,31.1,177.9,30.7,177.9,30.3z"/>
		</g>
		<g>
			<path id="g1-112" d="M186.2,29.3c0-1.2-0.6-2.3-1.6-2.3c-0.6,0-1.2,0.2-1.6,0.6v-0.5h-0.7v6.4h0.8v-2.4c0.3,0.3,0.7,0.6,1.3,0.6
				C185.3,31.7,186.2,30.7,186.2,29.3z M185.4,29.3c0,1-0.7,1.7-1.5,1.7c-0.4,0-0.7-0.2-0.9-0.5c-0.1-0.1-0.1-0.2-0.1-0.3v-2
				c0.2-0.3,0.6-0.6,1.1-0.6C184.8,27.6,185.4,28.4,185.4,29.3z"/>
		</g>
		<g>
			<path d="M191.5,29.4c0-1.3-1-2.4-2.2-2.4c-1.2,0-2.2,1.1-2.2,2.4c0,1.3,1,2.3,2.2,2.3C190.5,31.7,191.5,30.6,191.5,29.4z
				 M190.7,29.3c0,1.2-0.7,1.8-1.4,1.8c-0.7,0-1.4-0.6-1.4-1.8c0-1.2,0.8-1.7,1.4-1.7C190,27.6,190.7,28.1,190.7,29.3z"/>
		</g>
		<g>
			<path d="M196.2,31.5v-4.4h-0.8V30c0,0.7-0.6,1.1-1.2,1.1c-0.7,0-0.8-0.3-0.8-0.7v-3.3h-0.8v3.3c0,0.7,0.2,1.2,1.1,1.2
				c0.5,0,1.2-0.2,1.7-0.6v0.5H196.2z"/>
		</g>
		<g>
			<path d="M200.2,27.7V27c-0.9,0-1.4,0.5-1.7,1v-0.9h-0.7v4.5h0.7v-2.1C198.5,28.4,199.3,27.7,200.2,27.7z"/>
		</g>
		<g>
			<path id="g1-108" d="M205.3,31.5v-6.9h-0.7v6.9H205.3z"/>
		</g>
		<g>
			<path id="g1-39" d="M207.9,25.4v-0.8h-0.8v0.8h0.2l-0.2,1.2h0.4L207.9,25.4z"/>
		</g>
		<g>
			<path id="g1-85" d="M214.8,29.2v-4.6H214v4.6c0,1.3-0.8,2-1.7,2c-0.8,0-1.6-0.6-1.6-2v-4.6h-0.9v4.6c0,1.5,1.2,2.5,2.5,2.5
				C213.6,31.8,214.8,30.7,214.8,29.2z"/>
		</g>
		<g>
			<path id="g1-110" d="M220,31.5v-3c0-0.7-0.1-1.6-1.4-1.6c-0.9,0-1.4,0.7-1.4,0.8v-0.7h-0.7v4.5h0.8v-2.4c0-0.7,0.2-1.5,1-1.5
				c1,0,1,0.7,1,1v2.9H220z"/>
		</g>
		<g>
			<path id="g1-105" d="M222.4,31.5v-4.4h-0.7v4.4H222.4z M222.5,25.9V25h-0.9v0.9H222.5z"/>
		</g>
		<g>
			<path id="g1-118" d="M227.7,27.1h-0.7l-0.8,2.1c-0.2,0.5-0.5,1.4-0.6,1.8h0c-0.1-0.4-0.3-1-0.4-1.3l-1-2.6h-0.8l1.7,4.4h0.9
				L227.7,27.1z"/>
		</g>
		<g>
			<path id="g1-101" d="M231.9,29.4c0-0.3,0-1.1-0.4-1.7c-0.4-0.6-1-0.7-1.4-0.7c-1.1,0-2,1.1-2,2.3c0,1.3,1,2.4,2.2,2.4
				c0.6,0,1.2-0.2,1.6-0.5l-0.1-0.6c-0.6,0.5-1.3,0.6-1.5,0.6c-0.8,0-1.4-0.7-1.5-1.7H231.9z M231.4,28.8h-2.5
				c0.2-0.8,0.7-1.3,1.3-1.3C230.7,27.6,231.3,27.9,231.4,28.8z"/>
		</g>
		<g>
			<path d="M235.5,27.7V27c-0.9,0-1.4,0.5-1.7,1v-0.9h-0.7v4.5h0.7v-2.1C233.8,28.4,234.5,27.7,235.5,27.7z"/>
		</g>
		<g>
			<path d="M239.2,30.3c0-0.5-0.4-0.9-0.4-0.9c-0.4-0.3-0.7-0.4-1.2-0.5c-0.5-0.1-1-0.2-1-0.7c0-0.6,0.7-0.6,0.8-0.6
				c0.3,0,0.8,0,1.4,0.4l0.1-0.6c-0.5-0.2-0.9-0.3-1.4-0.3c-0.2,0-1.7,0-1.7,1.3c0,0.5,0.3,0.8,0.5,1c0.3,0.2,0.5,0.3,1.1,0.4
				c0.4,0.1,0.9,0.2,0.9,0.7c0,0.7-0.8,0.7-0.9,0.7c-0.8,0-1.4-0.4-1.5-0.5l-0.1,0.7c0.3,0.2,0.9,0.4,1.7,0.4c0.2,0,0.7,0,1.2-0.3
				C239.1,31.1,239.2,30.7,239.2,30.3z"/>
		</g>
		<g>
			<path d="M241,31.5v-4.4h-0.7v4.4H241z M241.1,25.9V25h-0.9v0.9H241.1z"/>
		</g>
		<g>
			<path id="g1-116" d="M245.2,31.3l-0.2-0.6c-0.3,0.2-0.6,0.3-0.9,0.3c-0.4,0-0.5-0.3-0.5-0.8v-2.5h1.4v-0.6h-1.4v-1.3h-0.7v1.3
				H242v0.6h0.8v2.7c0,0.6,0.1,1.3,0.8,1.3C244.4,31.7,244.9,31.4,245.2,31.3z"/>
		</g>
		<g>
			<path id="g1-233" d="M249.6,29.4c0-0.3,0-1.1-0.4-1.7c-0.4-0.6-1-0.7-1.4-0.7c-1.1,0-2,1.1-2,2.3c0,1.3,1,2.4,2.2,2.4
				c0.6,0,1.2-0.2,1.6-0.5l-0.1-0.6c-0.6,0.5-1.3,0.6-1.5,0.6c-0.8,0-1.4-0.7-1.5-1.7H249.6z M249,28.8h-2.5
				c0.2-0.8,0.7-1.3,1.3-1.3C248.3,27.6,248.9,27.9,249,28.8z M249.1,24.6h-0.8l-1.3,1.7h0.6L249.1,24.6z"/>
		</g>
		<g>
			<path d="M258,29.3c0-1.2-0.6-2.3-1.6-2.3c-0.6,0-1.2,0.2-1.6,0.6v-0.5H254v6.4h0.8v-2.4c0.3,0.3,0.7,0.6,1.3,0.6
				C257.1,31.7,258,30.7,258,29.3z M257.2,29.3c0,1-0.7,1.7-1.5,1.7c-0.4,0-0.7-0.2-0.9-0.5c-0.1-0.1-0.1-0.2-0.1-0.3v-2
				c0.2-0.3,0.6-0.6,1.1-0.6C256.6,27.6,257.2,28.4,257.2,29.3z"/>
		</g>
		<g>
			<path id="g1-97" d="M262.4,31.5v-2.9c0-1-0.7-1.7-1.6-1.7c-0.6,0-1.1,0.2-1.6,0.4l0.1,0.7c0.5-0.4,1-0.5,1.5-0.5
				c0.5,0,0.9,0.4,0.9,1.1v0.4c-1.5,0-2.8,0.4-2.8,1.3c0,0.4,0.3,1.2,1.1,1.2c0.1,0,1.1,0,1.7-0.5v0.4H262.4z M261.6,30.2
				c0,0.2,0,0.4-0.3,0.6c-0.3,0.2-0.7,0.2-0.8,0.2c-0.5,0-0.9-0.2-0.9-0.6c0-0.7,1.6-0.8,2-0.8V30.2z"/>
		</g>
		<g>
			<path d="M266.1,27.7V27c-0.9,0-1.4,0.5-1.7,1v-0.9h-0.7v4.5h0.7v-2.1C264.4,28.4,265.1,27.7,266.1,27.7z"/>
		</g>
		<g>
			<path d="M267.8,31.5v-4.4h-0.7v4.4H267.8z M267.9,25.9V25H267v0.9H267.9z"/>
		</g>
		<g>
			<path d="M272.2,30.3c0-0.5-0.4-0.9-0.4-0.9c-0.4-0.3-0.7-0.4-1.2-0.5c-0.5-0.1-1-0.2-1-0.7c0-0.6,0.7-0.6,0.8-0.6
				c0.3,0,0.8,0,1.4,0.4l0.1-0.6c-0.5-0.2-0.9-0.3-1.4-0.3c-0.2,0-1.7,0-1.7,1.3c0,0.5,0.3,0.8,0.5,1c0.3,0.2,0.5,0.3,1.1,0.4
				c0.4,0.1,0.9,0.2,0.9,0.7c0,0.7-0.8,0.7-0.9,0.7c-0.8,0-1.4-0.4-1.5-0.5l-0.1,0.7c0.3,0.2,0.9,0.4,1.7,0.4c0.2,0,0.7,0,1.2-0.3
				C272.1,31.1,272.2,30.7,272.2,30.3z"/>
		</g>
		<g>
			<path id="g1-45" d="M275.2,29.6V29h-2.6v0.6H275.2z"/>
		</g>
		<g>
			<path d="M280.1,31.5v-3c0-0.7-0.1-1.6-1.4-1.6c-0.9,0-1.4,0.7-1.4,0.8v-0.7h-0.7v4.5h0.8v-2.4c0-0.7,0.2-1.5,1-1.5c1,0,1,0.7,1,1
				v2.9H280.1z"/>
		</g>
		<g>
			<path d="M285,31.5v-2.9c0-1-0.7-1.7-1.6-1.7c-0.6,0-1.1,0.2-1.6,0.4l0.1,0.7c0.5-0.4,1-0.5,1.5-0.5c0.5,0,0.9,0.4,0.9,1.1v0.4
				c-1.5,0-2.8,0.4-2.8,1.3c0,0.4,0.3,1.2,1.1,1.2c0.1,0,1.1,0,1.7-0.5v0.4H285z M284.2,30.2c0,0.2,0,0.4-0.3,0.6
				c-0.3,0.2-0.7,0.2-0.8,0.2c-0.5,0-0.9-0.2-0.9-0.6c0-0.7,1.6-0.8,2-0.8V30.2z"/>
		</g>
		<g>
			<path d="M290.1,31.5v-3c0-0.7-0.1-1.6-1.4-1.6c-0.9,0-1.4,0.7-1.4,0.8v-0.7h-0.7v4.5h0.8v-2.4c0-0.7,0.2-1.5,1-1.5c1,0,1,0.7,1,1
				v2.9H290.1z"/>
		</g>
		<g>
			<path d="M294.2,31.3l-0.2-0.6c-0.3,0.2-0.6,0.3-0.9,0.3c-0.4,0-0.5-0.3-0.5-0.8v-2.5h1.4v-0.6h-1.4v-1.3h-0.7v1.3h-0.9v0.6h0.8
				v2.7c0,0.6,0.1,1.3,0.8,1.3C293.4,31.7,293.9,31.4,294.2,31.3z"/>
		</g>
		<g>
			<path d="M298.6,29.4c0-0.3,0-1.1-0.4-1.7c-0.4-0.6-1-0.7-1.4-0.7c-1.1,0-2,1.1-2,2.3c0,1.3,1,2.4,2.2,2.4c0.6,0,1.2-0.2,1.6-0.5
				l-0.1-0.6c-0.6,0.5-1.3,0.6-1.5,0.6c-0.8,0-1.4-0.7-1.5-1.7H298.6z M298,28.8h-2.5c0.2-0.8,0.7-1.3,1.3-1.3
				C297.3,27.6,297.9,27.9,298,28.8z"/>
		</g>
		<g>
			<path d="M302.1,27.7V27c-0.9,0-1.4,0.5-1.7,1v-0.9h-0.7v4.5h0.7v-2.1C300.5,28.4,301.2,27.7,302.1,27.7z"/>
		</g>
		<g>
			<path d="M305.6,27.7V27c-0.9,0-1.4,0.5-1.7,1v-0.9h-0.7v4.5h0.7v-2.1C303.9,28.4,304.6,27.7,305.6,27.7z"/>
		</g>
		<g>
			<path d="M309.8,29.4c0-0.3,0-1.1-0.4-1.7c-0.4-0.6-1-0.7-1.4-0.7c-1.1,0-2,1.1-2,2.3c0,1.3,1,2.4,2.2,2.4c0.6,0,1.2-0.2,1.6-0.5
				l-0.1-0.6c-0.6,0.5-1.3,0.6-1.5,0.6c-0.8,0-1.4-0.7-1.5-1.7H309.8z M309.3,28.8h-2.5c0.2-0.8,0.7-1.3,1.3-1.3
				C308.6,27.6,309.1,27.9,309.3,28.8z"/>
		</g>
	</g>
	<g transform="matrix(1 0 0 1 -150.0666 -24.624)">
		<g>
			<path id="g0-73" fill="#4D4D4D" d="M156.8,31.1v-6c0-0.3-0.1-0.5-0.5-0.5h-0.5c-0.4,0-0.5,0.1-0.5,0.5v6c0,0.4,0.1,0.5,0.5,0.5
				h0.5C156.7,31.5,156.8,31.4,156.8,31.1z"/>
		</g>
		<g>
			<path id="g0-110" fill="#4D4D4D" d="M162.7,31.1v-2.8c0-1-0.4-1.4-1.5-1.4c-1,0-1.5,0.8-1.6,1h0v-0.5c0-0.3-0.1-0.5-0.5-0.5h-0.3
				c-0.4,0-0.5,0.1-0.5,0.5v3.7c0,0.4,0.1,0.5,0.5,0.5h0.4c0.4,0,0.5-0.1,0.5-0.5v-2.2c0-0.9,0.6-1.3,1.1-1.3c0.5,0,0.6,0.2,0.6,0.7
				v2.7c0,0.3,0.1,0.5,0.5,0.5h0.4C162.6,31.5,162.7,31.4,162.7,31.1z"/>
		</g>
		<g>
			<path id="g0-112" fill="#4D4D4D" d="M168.5,29.2c0-0.5,0-2.4-1.8-2.4c-0.6,0-1.1,0.2-1.5,0.6c0-0.4-0.1-0.5-0.5-0.5h-0.4
				c-0.4,0-0.5,0.1-0.5,0.5V33c0,0.4,0.1,0.5,0.5,0.5h0.4c0.4,0,0.5-0.1,0.5-0.5v-1.8c0.4,0.5,1,0.5,1.1,0.5
				C168.5,31.7,168.5,29.7,168.5,29.2z M167.1,29.3c0,0.4,0,1.7-1.1,1.7c-0.2,0-0.4-0.1-0.5-0.2c-0.2-0.2-0.2-0.2-0.2-0.4V28
				c0.1-0.1,0.4-0.3,0.9-0.3C167.1,27.6,167.1,28.8,167.1,29.3z"/>
		</g>
		<g>
			<path id="g0-117" fill="#4D4D4D" d="M173.8,31.1v-3.6c0-0.3-0.1-0.5-0.5-0.5H173c-0.4,0-0.5,0.1-0.5,0.5v2.4
				c0,0.7-0.3,1.2-1.1,1.2c-0.6,0-0.6-0.1-0.6-0.7v-2.9c0-0.3-0.1-0.5-0.5-0.5h-0.4c-0.4,0-0.5,0.1-0.5,0.5v2.8
				c0,1.1,0.6,1.4,1.6,1.4c0.3,0,1,0,1.4-0.8v0.3c0,0.3,0.1,0.5,0.5,0.5h0.4C173.7,31.5,173.8,31.4,173.8,31.1z"/>
		</g>
		<g>
			<path id="g0-116" fill="#4D4D4D" d="M178.2,31.1c0,0,0-0.1-0.1-0.3c0-0.2-0.1-0.3-0.2-0.3c0,0-0.1,0-0.1,0.1
				c-0.1,0.1-0.4,0.3-0.8,0.3c-0.2,0-0.4-0.2-0.4-0.8v-2.4h0.9c0.1,0,0.5,0,0.5-0.4c0-0.4-0.4-0.4-0.5-0.4h-0.9v-0.8
				c0-0.3-0.1-0.5-0.5-0.5h-0.3c-0.4,0-0.5,0.1-0.5,0.5V27h-0.2c-0.1,0-0.5,0-0.5,0.4c0,0.4,0.4,0.4,0.5,0.4h0.2v2.5
				c0,1,0.4,1.4,1,1.4c0.1,0,0.5,0,1-0.2C177.6,31.4,178.2,31.3,178.2,31.1z"/>
		</g>
	</g>
	<path fill="#FFFFFF" d="M16.9,140.3h275v-34h-275V140.3z"/>
	<path fill="none" stroke="#AAAAAA" stroke-width="0.9963" stroke-miterlimit="10" d="M16.9,140.3h275v-34h-275V140.3z"/>
	<g transform="matrix(1 0 0 1 -127.5607 93.8507)">
		<g>
			<path d="M160.2,31.1l-0.1-0.7c-0.3,0.2-0.6,0.4-0.9,0.5c-0.3,0.1-0.7,0.1-1,0.1c-0.6,0-1.2-0.3-1.6-0.9c-0.5-0.6-0.7-1.3-0.7-2.1
				s0.2-1.5,0.7-2.1c0.4-0.5,1-0.9,1.6-0.9c0.3,0,0.6,0,0.9,0.1c0.3,0.1,0.6,0.2,0.8,0.4l0.1-0.8c-0.3-0.1-0.6-0.2-0.9-0.3
				c-0.3-0.1-0.6-0.1-0.9-0.1c-0.9,0-1.7,0.4-2.3,1c-0.6,0.7-0.9,1.6-0.9,2.5c0,0.9,0.3,1.8,0.9,2.5c0.6,0.6,1.4,1,2.3,1
				c0.3,0,0.7,0,1-0.1C159.6,31.5,159.9,31.3,160.2,31.1z"/>
		</g>
		<g>
			<path d="M165.4,29.4c0-1.3-1-2.4-2.2-2.4c-1.2,0-2.2,1.1-2.2,2.4c0,1.3,1,2.3,2.2,2.3C164.4,31.7,165.4,30.6,165.4,29.4z
				 M164.7,29.3c0,1.2-0.7,1.8-1.4,1.8c-0.7,0-1.4-0.6-1.4-1.8c0-1.2,0.8-1.7,1.4-1.7C163.9,27.6,164.7,28.1,164.7,29.3z"/>
		</g>
		<g>
			<path d="M170.1,31.5v-4.4h-0.8V30c0,0.7-0.6,1.1-1.2,1.1c-0.7,0-0.8-0.3-0.8-0.7v-3.3h-0.8v3.3c0,0.7,0.2,1.2,1.1,1.2
				c0.5,0,1.2-0.2,1.7-0.6v0.5H170.1z"/>
		</g>
		<g>
			<path d="M174.1,27.7V27c-0.9,0-1.4,0.5-1.7,1v-0.9h-0.7v4.5h0.7v-2.1C172.4,28.4,173.2,27.7,174.1,27.7z"/>
		</g>
		<g>
			<path d="M177.9,30.3c0-0.5-0.4-0.9-0.4-0.9c-0.4-0.3-0.7-0.4-1.2-0.5c-0.5-0.1-1-0.2-1-0.7c0-0.6,0.7-0.6,0.8-0.6
				c0.3,0,0.8,0,1.4,0.4l0.1-0.6c-0.5-0.2-0.9-0.3-1.4-0.3c-0.2,0-1.7,0-1.7,1.3c0,0.5,0.3,0.8,0.5,1c0.3,0.2,0.5,0.3,1.1,0.4
				c0.4,0.1,0.9,0.2,0.9,0.7c0,0.7-0.8,0.7-0.9,0.7c-0.8,0-1.4-0.4-1.5-0.5l-0.1,0.7c0.3,0.2,0.9,0.4,1.7,0.4c0.2,0,0.7,0,1.2-0.3
				C177.7,31.1,177.9,30.7,177.9,30.3z"/>
		</g>
		<g>
			<path d="M186.2,29.3c0-1.2-0.6-2.3-1.6-2.3c-0.6,0-1.2,0.2-1.6,0.6v-0.5h-0.7v6.4h0.8v-2.4c0.3,0.3,0.7,0.6,1.3,0.6
				C185.3,31.7,186.2,30.7,186.2,29.3z M185.4,29.3c0,1-0.7,1.7-1.5,1.7c-0.4,0-0.7-0.2-0.9-0.5c-0.1-0.1-0.1-0.2-0.1-0.3v-2
				c0.2-0.3,0.6-0.6,1.1-0.6C184.8,27.6,185.4,28.4,185.4,29.3z"/>
		</g>
		<g>
			<path d="M191.5,29.4c0-1.3-1-2.4-2.2-2.4c-1.2,0-2.2,1.1-2.2,2.4c0,1.3,1,2.3,2.2,2.3C190.5,31.7,191.5,30.6,191.5,29.4z
				 M190.7,29.3c0,1.2-0.7,1.8-1.4,1.8c-0.7,0-1.4-0.6-1.4-1.8c0-1.2,0.8-1.7,1.4-1.7C190,27.6,190.7,28.1,190.7,29.3z"/>
		</g>
		<g>
			<path d="M196.2,31.5v-4.4h-0.8V30c0,0.7-0.6,1.1-1.2,1.1c-0.7,0-0.8-0.3-0.8-0.7v-3.3h-0.8v3.3c0,0.7,0.2,1.2,1.1,1.2
				c0.5,0,1.2-0.2,1.7-0.6v0.5H196.2z"/>
		</g>
		<g>
			<path d="M200.2,27.7V27c-0.9,0-1.4,0.5-1.7,1v-0.9h-0.7v4.5h0.7v-2.1C198.5,28.4,199.3,27.7,200.2,27.7z"/>
		</g>
		<g>
			<path d="M205.3,31.5v-6.9h-0.7v6.9H205.3z"/>
		</g>
		<g>
			<path d="M207.9,25.4v-0.8h-0.8v0.8h0.2l-0.2,1.2h0.4L207.9,25.4z"/>
		</g>
	</g>
	<g transform="matrix(1 0 0 1 -178.1979 93.8507)">
		<g>
			<path fill="#3366CC" d="M265.4,29.2v-4.6h-0.8v4.6c0,1.3-0.8,2-1.7,2c-0.8,0-1.6-0.6-1.6-2v-4.6h-0.9v4.6c0,1.5,1.2,2.5,2.5,2.5
				C264.3,31.8,265.4,30.7,265.4,29.2z"/>
		</g>
		<g>
			<path fill="#3366CC" d="M270.7,31.5v-3c0-0.7-0.1-1.6-1.4-1.6c-0.9,0-1.4,0.7-1.4,0.8v-0.7h-0.7v4.5h0.8v-2.4
				c0-0.7,0.2-1.5,1-1.5c1,0,1,0.7,1,1v2.9H270.7z"/>
		</g>
		<g>
			<path fill="#3366CC" d="M273,31.5v-4.4h-0.7v4.4H273z M273.1,25.9V25h-0.9v0.9H273.1z"/>
		</g>
		<g>
			<path fill="#3366CC" d="M278.3,27.1h-0.7l-0.8,2.1c-0.2,0.5-0.5,1.4-0.6,1.8h0c-0.1-0.4-0.3-1-0.4-1.3l-1-2.6H274l1.7,4.4h0.9
				L278.3,27.1z"/>
		</g>
		<g>
			<path fill="#3366CC" d="M282.6,29.4c0-0.3,0-1.1-0.4-1.7c-0.4-0.6-1-0.7-1.4-0.7c-1.1,0-2,1.1-2,2.3c0,1.3,1,2.4,2.2,2.4
				c0.6,0,1.2-0.2,1.6-0.5l-0.1-0.6c-0.6,0.5-1.3,0.6-1.5,0.6c-0.8,0-1.4-0.7-1.5-1.7H282.6z M282,28.8h-2.5
				c0.2-0.8,0.7-1.3,1.3-1.3C281.3,27.6,281.9,27.9,282,28.8z"/>
		</g>
		<g>
			<path fill="#3366CC" d="M286.1,27.7V27c-0.9,0-1.4,0.5-1.7,1v-0.9h-0.7v4.5h0.7v-2.1C284.5,28.4,285.2,27.7,286.1,27.7z"/>
		</g>
		<g>
			<path fill="#3366CC" d="M289.9,30.3c0-0.5-0.4-0.9-0.4-0.9c-0.4-0.3-0.7-0.4-1.2-0.5c-0.5-0.1-1-0.2-1-0.7c0-0.6,0.7-0.6,0.8-0.6
				c0.3,0,0.8,0,1.4,0.4l0.1-0.6c-0.5-0.2-0.9-0.3-1.4-0.3c-0.2,0-1.7,0-1.7,1.3c0,0.5,0.3,0.8,0.5,1c0.3,0.2,0.5,0.3,1.1,0.4
				c0.4,0.1,0.9,0.2,0.9,0.7c0,0.7-0.8,0.7-0.9,0.7c-0.8,0-1.4-0.4-1.5-0.5l-0.1,0.7c0.3,0.2,0.9,0.4,1.7,0.4c0.2,0,0.7,0,1.2-0.3
				C289.7,31.1,289.9,30.7,289.9,30.3z"/>
		</g>
		<g>
			<path fill="#3366CC" d="M291.7,31.5v-4.4h-0.7v4.4H291.7z M291.7,25.9V25h-0.9v0.9H291.7z"/>
		</g>
		<g>
			<path fill="#3366CC" d="M295.8,31.3l-0.2-0.6c-0.3,0.2-0.6,0.3-0.9,0.3c-0.4,0-0.5-0.3-0.5-0.8v-2.5h1.4v-0.6h-1.4v-1.3h-0.7v1.3
				h-0.9v0.6h0.8v2.7c0,0.6,0.1,1.3,0.8,1.3C295,31.7,295.5,31.4,295.8,31.3z"/>
		</g>
		<g>
			<path fill="#3366CC" d="M300.2,29.4c0-0.3,0-1.1-0.4-1.7c-0.4-0.6-1-0.7-1.4-0.7c-1.1,0-2,1.1-2,2.3c0,1.3,1,2.4,2.2,2.4
				c0.6,0,1.2-0.2,1.6-0.5l-0.1-0.6c-0.6,0.5-1.3,0.6-1.5,0.6c-0.8,0-1.4-0.7-1.5-1.7H300.2z M299.6,28.8h-2.5
				c0.2-0.8,0.7-1.3,1.3-1.3C299,27.6,299.5,27.9,299.6,28.8z M299.7,24.6h-0.8l-1.3,1.7h0.6L299.7,24.6z"/>
		</g>
		<g>
			<path fill="#3366CC" d="M308.6,29.3c0-1.2-0.6-2.3-1.6-2.3c-0.6,0-1.2,0.2-1.6,0.6v-0.5h-0.7v6.4h0.8v-2.4
				c0.3,0.3,0.7,0.6,1.3,0.6C307.7,31.7,308.6,30.7,308.6,29.3z M307.8,29.3c0,1-0.7,1.7-1.5,1.7c-0.4,0-0.7-0.2-0.9-0.5
				c-0.1-0.1-0.1-0.2-0.1-0.3v-2c0.2-0.3,0.6-0.6,1.1-0.6C307.2,27.6,307.8,28.4,307.8,29.3z"/>
		</g>
		<g>
			<path fill="#3366CC" d="M313.1,31.5v-2.9c0-1-0.7-1.7-1.6-1.7c-0.6,0-1.1,0.2-1.6,0.4l0.1,0.7c0.5-0.4,1-0.5,1.5-0.5
				c0.5,0,0.9,0.4,0.9,1.1v0.4c-1.5,0-2.8,0.4-2.8,1.3c0,0.4,0.3,1.2,1.1,1.2c0.1,0,1.1,0,1.7-0.5v0.4H313.1z M312.3,30.2
				c0,0.2,0,0.4-0.3,0.6c-0.3,0.2-0.7,0.2-0.8,0.2c-0.5,0-0.9-0.2-0.9-0.6c0-0.7,1.6-0.8,2-0.8V30.2z"/>
		</g>
		<g>
			<path fill="#3366CC" d="M316.8,27.7V27c-0.9,0-1.4,0.5-1.7,1v-0.9h-0.7v4.5h0.7v-2.1C315.1,28.4,315.8,27.7,316.8,27.7z"/>
		</g>
		<g>
			<path fill="#3366CC" d="M318.5,31.5v-4.4h-0.7v4.4H318.5z M318.5,25.9V25h-0.9v0.9H318.5z"/>
		</g>
		<g>
			<path fill="#3366CC" d="M322.9,30.3c0-0.5-0.4-0.9-0.4-0.9c-0.4-0.3-0.7-0.4-1.2-0.5c-0.5-0.1-1-0.2-1-0.7c0-0.6,0.7-0.6,0.8-0.6
				c0.3,0,0.8,0,1.4,0.4l0.1-0.6c-0.5-0.2-0.9-0.3-1.4-0.3c-0.2,0-1.7,0-1.7,1.3c0,0.5,0.3,0.8,0.5,1c0.3,0.2,0.5,0.3,1.1,0.4
				c0.4,0.1,0.9,0.2,0.9,0.7c0,0.7-0.8,0.7-0.9,0.7c-0.8,0-1.4-0.4-1.5-0.5l-0.1,0.7c0.3,0.2,0.9,0.4,1.7,0.4c0.2,0,0.7,0,1.2-0.3
				C322.7,31.1,322.9,30.7,322.9,30.3z"/>
		</g>
		<g>
			<path fill="#3366CC" d="M325.8,29.6V29h-2.6v0.6H325.8z"/>
		</g>
		<g>
			<path fill="#3366CC" d="M330.8,31.5v-3c0-0.7-0.1-1.6-1.4-1.6c-0.9,0-1.4,0.7-1.4,0.8v-0.7h-0.7v4.5h0.8v-2.4
				c0-0.7,0.2-1.5,1-1.5c1,0,1,0.7,1,1v2.9H330.8z"/>
		</g>
		<g>
			<path fill="#3366CC" d="M335.6,31.5v-2.9c0-1-0.7-1.7-1.6-1.7c-0.6,0-1.1,0.2-1.6,0.4l0.1,0.7c0.5-0.4,1-0.5,1.5-0.5
				c0.5,0,0.9,0.4,0.9,1.1v0.4c-1.5,0-2.8,0.4-2.8,1.3c0,0.4,0.3,1.2,1.1,1.2c0.1,0,1.1,0,1.7-0.5v0.4H335.6z M334.9,30.2
				c0,0.2,0,0.4-0.3,0.6c-0.3,0.2-0.7,0.2-0.8,0.2c-0.5,0-0.9-0.2-0.9-0.6c0-0.7,1.6-0.8,2-0.8V30.2z"/>
		</g>
		<g>
			<path fill="#3366CC" d="M340.7,31.5v-3c0-0.7-0.1-1.6-1.4-1.6c-0.9,0-1.4,0.7-1.4,0.8v-0.7h-0.7v4.5h0.8v-2.4
				c0-0.7,0.2-1.5,1-1.5c1,0,1,0.7,1,1v2.9H340.7z"/>
		</g>
		<g>
			<path fill="#3366CC" d="M344.8,31.3l-0.2-0.6c-0.3,0.2-0.6,0.3-0.9,0.3c-0.4,0-0.5-0.3-0.5-0.8v-2.5h1.4v-0.6h-1.4v-1.3h-0.7v1.3
				h-0.9v0.6h0.8v2.7c0,0.6,0.1,1.3,0.8,1.3C344.1,31.7,344.6,31.4,344.8,31.3z"/>
		</g>
		<g>
			<path fill="#3366CC" d="M349.2,29.4c0-0.3,0-1.1-0.4-1.7c-0.4-0.6-1-0.7-1.4-0.7c-1.1,0-2,1.1-2,2.3c0,1.3,1,2.4,2.2,2.4
				c0.6,0,1.2-0.2,1.6-0.5l-0.1-0.6c-0.6,0.5-1.3,0.6-1.5,0.6c-0.8,0-1.4-0.7-1.5-1.7H349.2z M348.7,28.8h-2.5
				c0.2-0.8,0.7-1.3,1.3-1.3C348,27.6,348.5,27.9,348.7,28.8z"/>
		</g>
		<g>
			<path fill="#3366CC" d="M352.8,27.7V27c-0.9,0-1.4,0.5-1.7,1v-0.9h-0.7v4.5h0.7v-2.1C351.1,28.4,351.8,27.7,352.8,27.7z"/>
		</g>
		<g>
			<path fill="#3366CC" d="M356.2,27.7V27c-0.9,0-1.4,0.5-1.7,1v-0.9h-0.7v4.5h0.7v-2.1C354.5,28.4,355.2,27.7,356.2,27.7z"/>
		</g>
		<g>
			<path fill="#3366CC" d="M360.5,29.4c0-0.3,0-1.1-0.4-1.7c-0.4-0.6-1-0.7-1.4-0.7c-1.1,0-2,1.1-2,2.3c0,1.3,1,2.4,2.2,2.4
				c0.6,0,1.2-0.2,1.6-0.5l-0.1-0.6c-0.6,0.5-1.3,0.6-1.5,0.6c-0.8,0-1.4-0.7-1.5-1.7H360.5z M359.9,28.8h-2.5
				c0.2-0.8,0.7-1.3,1.3-1.3C359.2,27.6,359.8,27.9,359.9,28.8z"/>
		</g>
	</g>
	<rect x="81.3" y="128.5" fill="#3366CC" width="101.3" height="0.4"/>
	<g transform="matrix(1 0 0 1 -154.3908 67.082)">
		<g>
			<path id="g0-79" fill="#4D4D4D" d="M161.7,28.1c0-2-0.7-3.7-3.3-3.7c-2.8,0-3.3,1.9-3.3,3.7c0,1.9,0.6,3.6,3.3,3.6
				C160.9,31.8,161.7,30.2,161.7,28.1z M160.2,28c0,0.9,0,3-1.9,3c-1.9,0-1.9-2.1-1.9-3c0-0.9,0-2.8,1.9-2.8
				C160.2,25.2,160.2,27.1,160.2,28z"/>
		</g>
		<g>
			<path fill="#4D4D4D" d="M167.3,31.1v-3.6c0-0.3-0.1-0.5-0.5-0.5h-0.4c-0.4,0-0.5,0.1-0.5,0.5v2.4c0,0.7-0.3,1.2-1.1,1.2
				c-0.6,0-0.6-0.1-0.6-0.7v-2.9c0-0.3-0.1-0.5-0.5-0.5h-0.4c-0.4,0-0.5,0.1-0.5,0.5v2.8c0,1.1,0.6,1.4,1.6,1.4c0.3,0,1,0,1.4-0.8
				v0.3c0,0.3,0.1,0.5,0.5,0.5h0.4C167.2,31.5,167.3,31.4,167.3,31.1z"/>
		</g>
		<g>
			<path fill="#4D4D4D" d="M171.6,31.1c0,0,0-0.1-0.1-0.3c0-0.2-0.1-0.3-0.2-0.3c0,0-0.1,0-0.1,0.1c-0.1,0.1-0.4,0.3-0.8,0.3
				c-0.2,0-0.4-0.2-0.4-0.8v-2.4h0.9c0.1,0,0.5,0,0.5-0.4c0-0.4-0.4-0.4-0.5-0.4h-0.9v-0.8c0-0.3-0.1-0.5-0.5-0.5h-0.3
				c-0.4,0-0.5,0.1-0.5,0.5V27h-0.2c-0.1,0-0.5,0-0.5,0.4c0,0.4,0.4,0.4,0.5,0.4h0.2v2.5c0,1,0.4,1.4,1,1.4c0.1,0,0.5,0,1-0.2
				C171,31.4,171.6,31.3,171.6,31.1z"/>
		</g>
		<g>
			<path fill="#4D4D4D" d="M177.1,29.2c0-0.5,0-2.4-1.8-2.4c-0.6,0-1.1,0.2-1.5,0.6c0-0.4-0.1-0.5-0.5-0.5H173
				c-0.4,0-0.5,0.1-0.5,0.5V33c0,0.4,0.1,0.5,0.5,0.5h0.4c0.4,0,0.5-0.1,0.5-0.5v-1.8c0.4,0.5,1,0.5,1.1,0.5
				C177.1,31.7,177.1,29.7,177.1,29.2z M175.8,29.3c0,0.4,0,1.7-1.1,1.7c-0.2,0-0.4-0.1-0.5-0.2c-0.2-0.2-0.2-0.2-0.2-0.4V28
				c0.1-0.1,0.4-0.3,0.9-0.3C175.8,27.6,175.8,28.8,175.8,29.3z"/>
		</g>
		<g>
			<path fill="#4D4D4D" d="M182.5,31.1v-3.6c0-0.3-0.1-0.5-0.5-0.5h-0.4c-0.4,0-0.5,0.1-0.5,0.5v2.4c0,0.7-0.3,1.2-1.1,1.2
				c-0.6,0-0.6-0.1-0.6-0.7v-2.9c0-0.3-0.1-0.5-0.5-0.5h-0.4c-0.4,0-0.5,0.1-0.5,0.5v2.8c0,1.1,0.6,1.4,1.6,1.4c0.3,0,1,0,1.4-0.8
				v0.3c0,0.3,0.1,0.5,0.5,0.5h0.4C182.4,31.5,182.5,31.4,182.5,31.1z"/>
		</g>
		<g>
			<path fill="#4D4D4D" d="M186.8,31.1c0,0,0-0.1-0.1-0.3c0-0.2-0.1-0.3-0.2-0.3c0,0-0.1,0-0.1,0.1c-0.1,0.1-0.4,0.3-0.8,0.3
				c-0.2,0-0.4-0.2-0.4-0.8v-2.4h0.9c0.1,0,0.5,0,0.5-0.4c0-0.4-0.4-0.4-0.5-0.4h-0.9v-0.8c0-0.3-0.1-0.5-0.5-0.5h-0.3
				c-0.4,0-0.5,0.1-0.5,0.5V27h-0.2c-0.1,0-0.5,0-0.5,0.4c0,0.4,0.4,0.4,0.5,0.4h0.2v2.5c0,1,0.4,1.4,1,1.4c0.1,0,0.5,0,1-0.2
				C186.2,31.4,186.8,31.3,186.8,31.1z"/>
		</g>
	</g>
	<g transform="matrix(1 0 0 1 -98.76297 162.5893)">
		<g>
			<path id="g1-102" fill="#3366CC" d="M113.8,25.3v-0.7c-0.1,0-0.4-0.1-0.8-0.1c-0.9,0-1.7,0.7-1.7,1.7v0.9h-0.7v0.6h0.7v3.8h0.7
				v-3.8h1.1v-0.6h-1.1v-1.2c0-0.7,0.7-0.8,0.9-0.8C113.2,25.1,113.5,25.1,113.8,25.3z"/>
		</g>
		<g>
			<path fill="#3366CC" d="M116.7,27.7V27c-0.9,0-1.4,0.5-1.7,1v-0.9h-0.7v4.5h0.7v-2.1C115,28.4,115.7,27.7,116.7,27.7z"/>
		</g>
		<g>
			<path id="g1-46" fill="#3366CC" d="M118.6,31.5v-0.8h-0.8v0.8H118.6z"/>
		</g>
		<g>
			<path id="g1-119" fill="#3366CC" d="M126.3,27.1h-0.7l-0.6,2.1c-0.1,0.4-0.4,1.3-0.5,1.8h0c0-0.3-0.3-1.2-0.5-1.8l-0.6-2.1h-0.7
				l-0.6,1.9c-0.1,0.3-0.4,1.5-0.5,2h0c0-0.5-0.4-1.6-0.5-2.2l-0.5-1.7h-0.8l1.4,4.4h0.8l0.6-2.1c0.1-0.5,0.4-1.4,0.4-1.8h0
				c0,0.3,0.2,1,0.3,1.4l0.7,2.5h0.9L126.3,27.1z"/>
		</g>
		<g>
			<path fill="#3366CC" d="M128,31.5v-4.4h-0.7v4.4H128z M128,25.9V25h-0.9v0.9H128z"/>
		</g>
		<g>
			<path id="g1-107" fill="#3366CC" d="M133.5,31.5l-1.9-2.7l1.7-1.7h-0.9l-2,2.1v-4.6h-0.7v6.9h0.7v-1.4l0.8-0.8l1.6,2.2H133.5z"/>
		</g>
		<g>
			<path fill="#3366CC" d="M135.2,31.5v-4.4h-0.7v4.4H135.2z M135.3,25.9V25h-0.9v0.9H135.3z"/>
		</g>
		<g>
			<path fill="#3366CC" d="M140.8,29.3c0-1.2-0.6-2.3-1.6-2.3c-0.6,0-1.2,0.2-1.6,0.6v-0.5h-0.7v6.4h0.8v-2.4
				c0.3,0.3,0.7,0.6,1.3,0.6C139.9,31.7,140.8,30.7,140.8,29.3z M140,29.3c0,1-0.7,1.7-1.5,1.7c-0.4,0-0.7-0.2-0.9-0.5
				c-0.1-0.1-0.1-0.2-0.1-0.3v-2c0.2-0.3,0.6-0.6,1.1-0.6C139.5,27.6,140,28.4,140,29.3z"/>
		</g>
		<g>
			<path fill="#3366CC" d="M145.6,29.4c0-0.3,0-1.1-0.4-1.7c-0.4-0.6-1-0.7-1.4-0.7c-1.1,0-2,1.1-2,2.3c0,1.3,1,2.4,2.2,2.4
				c0.6,0,1.2-0.2,1.6-0.5l-0.1-0.6c-0.6,0.5-1.3,0.6-1.5,0.6c-0.8,0-1.4-0.7-1.5-1.7H145.6z M145,28.8h-2.5
				c0.2-0.8,0.7-1.3,1.3-1.3C144.3,27.6,144.9,27.9,145,28.8z"/>
		</g>
		<g>
			<path id="g1-100" fill="#3366CC" d="M150.2,31.5v-6.9h-0.7v2.9c-0.5-0.4-1.1-0.5-1.5-0.5c-1,0-1.8,1-1.8,2.3
				c0,1.3,0.8,2.3,1.7,2.3c0.3,0,0.9-0.1,1.5-0.6v0.5H150.2z M149.4,30.2c0,0.1,0,0.3-0.3,0.6c-0.2,0.2-0.5,0.3-0.7,0.3
				c-0.6,0-1.3-0.5-1.3-1.7c0-1.3,0.9-1.7,1.4-1.7c0.4,0,0.7,0.2,1,0.5V30.2z"/>
		</g>
		<g>
			<path fill="#3366CC" d="M152.6,31.5v-4.4h-0.7v4.4H152.6z M152.7,25.9V25h-0.9v0.9H152.7z"/>
		</g>
		<g>
			<path fill="#3366CC" d="M157.5,31.5v-2.9c0-1-0.7-1.7-1.6-1.7c-0.6,0-1.1,0.2-1.6,0.4l0.1,0.7c0.5-0.4,1-0.5,1.5-0.5
				c0.5,0,0.9,0.4,0.9,1.1v0.4c-1.5,0-2.8,0.4-2.8,1.3c0,0.4,0.3,1.2,1.1,1.2c0.1,0,1.1,0,1.7-0.5v0.4H157.5z M156.7,30.2
				c0,0.2,0,0.4-0.3,0.6c-0.3,0.2-0.7,0.2-0.8,0.2c-0.5,0-0.9-0.2-0.9-0.6c0-0.7,1.6-0.8,2-0.8V30.2z"/>
		</g>
		<g>
			<path fill="#3366CC" d="M160,31.5v-0.8h-0.8v0.8H160z"/>
		</g>
		<g>
			<path fill="#3366CC" d="M165.7,29.4c0-1.3-1-2.4-2.2-2.4c-1.2,0-2.2,1.1-2.2,2.4c0,1.3,1,2.3,2.2,2.3
				C164.7,31.7,165.7,30.6,165.7,29.4z M164.9,29.3c0,1.2-0.7,1.8-1.4,1.8c-0.7,0-1.4-0.6-1.4-1.8c0-1.2,0.8-1.7,1.4-1.7
				C164.2,27.6,164.9,28.1,164.9,29.3z"/>
		</g>
		<g>
			<path fill="#3366CC" d="M168.9,27.7V27c-0.9,0-1.4,0.5-1.7,1v-0.9h-0.7v4.5h0.7v-2.1C167.2,28.4,168,27.7,168.9,27.7z"/>
		</g>
		<g>
			<path id="g1-103" fill="#3366CC" d="M173.9,27.6l-0.1-0.6c-0.7,0-1.3,0.2-1.6,0.3c-0.2-0.2-0.5-0.3-0.9-0.3
				c-0.9,0-1.6,0.7-1.6,1.6c0,0.4,0.1,0.7,0.3,1c-0.3,0.4-0.3,0.8-0.3,0.8c0,0.3,0.1,0.5,0.3,0.8c-0.5,0.3-0.6,0.8-0.6,1
				c0,0.7,1,1.3,2.2,1.3c1.2,0,2.2-0.6,2.2-1.4c0-1.4-1.7-1.4-2.1-1.4h-0.9c-0.1,0-0.6,0-0.6-0.5c0-0.1,0-0.3,0.1-0.4
				c0.2,0.1,0.5,0.3,0.9,0.3c0.9,0,1.6-0.7,1.6-1.6c0-0.5-0.2-0.8-0.3-1l0,0c0.2,0,0.5,0,0.7,0C173.5,27.6,173.9,27.6,173.9,27.6z
				 M172.2,28.6c0,0.8-0.5,1.1-0.9,1.1c-0.4,0-0.9-0.2-0.9-1.1c0-0.8,0.5-1.1,0.9-1.1C171.7,27.6,172.2,27.9,172.2,28.6z
				 M173.1,32.3c0,0.4-0.7,0.8-1.5,0.8c-0.8,0-1.5-0.3-1.5-0.8c0,0,0-0.7,0.8-0.7h0.9C172,31.6,173.1,31.6,173.1,32.3z"/>
		</g>
		<g>
			<path id="g1-47" fill="#3366CC" d="M178.5,24.3c0-0.1-0.1-0.2-0.2-0.2c-0.1,0-0.2,0.1-0.2,0.2l-3.4,9.4c0,0.1,0,0.2,0,0.2
				c0,0.1,0.1,0.2,0.2,0.2c0.1,0,0.2-0.1,0.2-0.2l3.4-9.4C178.5,24.3,178.5,24.3,178.5,24.3z"/>
		</g>
		<g>
			<path fill="#3366CC" d="M185.7,27.1H185l-0.6,2.1c-0.1,0.4-0.4,1.3-0.5,1.8h0c0-0.3-0.3-1.2-0.5-1.8l-0.6-2.1h-0.7l-0.6,1.9
				c-0.1,0.3-0.4,1.5-0.5,2h0c0-0.5-0.4-1.6-0.5-2.2l-0.5-1.7h-0.8l1.4,4.4h0.8l0.6-2.1c0.1-0.5,0.4-1.4,0.4-1.8h0
				c0,0.3,0.2,1,0.3,1.4l0.7,2.5h0.9L185.7,27.1z"/>
		</g>
		<g>
			<path fill="#3366CC" d="M187.4,31.5v-4.4h-0.7v4.4H187.4z M187.5,25.9V25h-0.9v0.9H187.5z"/>
		</g>
		<g>
			<path fill="#3366CC" d="M192.9,31.5l-1.9-2.7l1.7-1.7h-0.9l-2,2.1v-4.6h-0.7v6.9h0.7v-1.4l0.8-0.8l1.6,2.2H192.9z"/>
		</g>
		<g>
			<path fill="#3366CC" d="M194.7,31.5v-4.4h-0.7v4.4H194.7z M194.7,25.9V25h-0.9v0.9H194.7z"/>
		</g>
		<g>
			<path fill="#3366CC" d="M199.9,24.3c0-0.1-0.1-0.2-0.2-0.2c-0.1,0-0.2,0.1-0.2,0.2l-3.4,9.4c0,0.1,0,0.2,0,0.2
				c0,0.1,0.1,0.2,0.2,0.2c0.1,0,0.2-0.1,0.2-0.2l3.4-9.4C199.9,24.3,199.9,24.3,199.9,24.3z"/>
		</g>
		<g>
			<path fill="#3366CC" d="M206.4,29.2v-4.6h-0.8v4.6c0,1.3-0.8,2-1.7,2c-0.8,0-1.6-0.6-1.6-2v-4.6h-0.9v4.6c0,1.5,1.2,2.5,2.5,2.5
				C205.3,31.8,206.4,30.7,206.4,29.2z"/>
		</g>
		<g>
			<path fill="#3366CC" d="M211.7,31.5v-3c0-0.7-0.1-1.6-1.4-1.6c-0.9,0-1.4,0.7-1.4,0.8v-0.7h-0.7v4.5h0.8v-2.4
				c0-0.7,0.2-1.5,1-1.5c1,0,1,0.7,1,1v2.9H211.7z"/>
		</g>
		<g>
			<path fill="#3366CC" d="M214,31.5v-4.4h-0.7v4.4H214z M214.1,25.9V25h-0.9v0.9H214.1z"/>
		</g>
		<g>
			<path fill="#3366CC" d="M219.3,27.1h-0.7l-0.8,2.1c-0.2,0.5-0.5,1.4-0.6,1.8h0c-0.1-0.4-0.3-1-0.4-1.3l-1-2.6H215l1.7,4.4h0.9
				L219.3,27.1z"/>
		</g>
		<g>
			<path fill="#3366CC" d="M223.6,29.4c0-0.3,0-1.1-0.4-1.7c-0.4-0.6-1-0.7-1.4-0.7c-1.1,0-2,1.1-2,2.3c0,1.3,1,2.4,2.2,2.4
				c0.6,0,1.2-0.2,1.6-0.5l-0.1-0.6c-0.6,0.5-1.3,0.6-1.5,0.6c-0.8,0-1.4-0.7-1.5-1.7H223.6z M223,28.8h-2.5
				c0.2-0.8,0.7-1.3,1.3-1.3C222.3,27.6,222.9,27.9,223,28.8z"/>
		</g>
		<g>
			<path fill="#3366CC" d="M227.1,27.7V27c-0.9,0-1.4,0.5-1.7,1v-0.9h-0.7v4.5h0.7v-2.1C225.4,28.4,226.1,27.7,227.1,27.7z"/>
		</g>
		<g>
			<path fill="#3366CC" d="M230.9,30.3c0-0.5-0.4-0.9-0.4-0.9c-0.4-0.3-0.7-0.4-1.2-0.5c-0.5-0.1-1-0.2-1-0.7c0-0.6,0.7-0.6,0.8-0.6
				c0.3,0,0.8,0,1.4,0.4l0.1-0.6c-0.5-0.2-0.9-0.3-1.4-0.3c-0.2,0-1.7,0-1.7,1.3c0,0.5,0.3,0.8,0.5,1c0.3,0.2,0.5,0.3,1.1,0.4
				c0.4,0.1,0.9,0.2,0.9,0.7c0,0.7-0.8,0.7-0.9,0.7c-0.8,0-1.4-0.4-1.5-0.5l-0.1,0.7c0.3,0.2,0.9,0.4,1.7,0.4c0.2,0,0.7,0,1.2-0.3
				C230.7,31.1,230.9,30.7,230.9,30.3z"/>
		</g>
		<g>
			<path fill="#3366CC" d="M232.6,31.5v-4.4h-0.7v4.4H232.6z M232.7,25.9V25h-0.9v0.9H232.7z"/>
		</g>
		<g>
			<path fill="#3366CC" d="M236.8,31.3l-0.2-0.6c-0.3,0.2-0.6,0.3-0.9,0.3c-0.4,0-0.5-0.3-0.5-0.8v-2.5h1.4v-0.6h-1.4v-1.3h-0.7v1.3
				h-0.9v0.6h0.8v2.7c0,0.6,0.1,1.3,0.8,1.3C236,31.7,236.5,31.4,236.8,31.3z"/>
		</g>
		<g>
			<path fill="#3366CC" d="M241.2,29.4c0-0.3,0-1.1-0.4-1.7c-0.4-0.6-1-0.7-1.4-0.7c-1.1,0-2,1.1-2,2.3c0,1.3,1,2.4,2.2,2.4
				c0.6,0,1.2-0.2,1.6-0.5l-0.1-0.6c-0.6,0.5-1.3,0.6-1.5,0.6c-0.8,0-1.4-0.7-1.5-1.7H241.2z M240.6,28.8h-2.5
				c0.2-0.8,0.7-1.3,1.3-1.3C239.9,27.6,240.5,27.9,240.6,28.8z M240.7,24.6h-0.8l-1.3,1.7h0.6L240.7,24.6z"/>
		</g>
		<g>
			<path id="g1-95" fill="#3366CC" d="M248.1,33.2v-0.8h-6.6v0.8H248.1z"/>
		</g>
		<g>
			<path id="g1-80" fill="#3366CC" d="M253.9,26.6c0-1.1-1-2-2.4-2h-2.5v6.9h0.9v-2.9h1.7C252.9,28.7,253.9,27.8,253.9,26.6z
				 M253.1,26.6c0,0.8-0.6,1.4-1.8,1.4H250v-2.9h1.4C252.5,25.2,253.1,25.8,253.1,26.6z"/>
		</g>
		<g>
			<path fill="#3366CC" d="M258.3,31.5v-2.9c0-1-0.7-1.7-1.6-1.7c-0.6,0-1.1,0.2-1.6,0.4l0.1,0.7c0.5-0.4,1-0.5,1.5-0.5
				c0.5,0,0.9,0.4,0.9,1.1v0.4c-1.5,0-2.8,0.4-2.8,1.3c0,0.4,0.3,1.2,1.1,1.2c0.1,0,1.1,0,1.7-0.5v0.4H258.3z M257.5,30.2
				c0,0.2,0,0.4-0.3,0.6c-0.3,0.2-0.7,0.2-0.8,0.2c-0.5,0-0.9-0.2-0.9-0.6c0-0.7,1.6-0.8,2-0.8V30.2z"/>
		</g>
		<g>
			<path fill="#3366CC" d="M262,27.7V27c-0.9,0-1.4,0.5-1.7,1v-0.9h-0.7v4.5h0.7v-2.1C260.3,28.4,261,27.7,262,27.7z"/>
		</g>
		<g>
			<path fill="#3366CC" d="M263.7,31.5v-4.4h-0.7v4.4H263.7z M263.8,25.9V25h-0.9v0.9H263.8z"/>
		</g>
		<g>
			<path fill="#3366CC" d="M268.1,30.3c0-0.5-0.4-0.9-0.4-0.9c-0.4-0.3-0.7-0.4-1.2-0.5c-0.5-0.1-1-0.2-1-0.7c0-0.6,0.7-0.6,0.8-0.6
				c0.3,0,0.8,0,1.4,0.4l0.1-0.6c-0.5-0.2-0.9-0.3-1.4-0.3c-0.2,0-1.7,0-1.7,1.3c0,0.5,0.3,0.8,0.5,1c0.3,0.2,0.5,0.3,1.1,0.4
				c0.4,0.1,0.9,0.2,0.9,0.7c0,0.7-0.8,0.7-0.9,0.7c-0.8,0-1.4-0.4-1.5-0.5l-0.1,0.7c0.3,0.2,0.9,0.4,1.7,0.4c0.2,0,0.7,0,1.2-0.3
				C267.9,31.1,268.1,30.7,268.1,30.3z"/>
		</g>
		<g>
			<path fill="#3366CC" d="M271.1,29.6V29h-2.6v0.6H271.1z"/>
		</g>
		<g>
			<path id="g1-78" fill="#3366CC" d="M277.7,31.5v-6.9H277v6.2h0l-0.7-1.4l-2.4-4.8h-1.2v6.9h0.8v-6.2h0l0.7,1.4l2.4,4.8H277.7z"/>
		</g>
		<g>
			<path fill="#3366CC" d="M282.8,31.5v-2.9c0-1-0.7-1.7-1.6-1.7c-0.6,0-1.1,0.2-1.6,0.4l0.1,0.7c0.5-0.4,1-0.5,1.5-0.5
				c0.5,0,0.9,0.4,0.9,1.1v0.4c-1.5,0-2.8,0.4-2.8,1.3c0,0.4,0.3,1.2,1.1,1.2c0.1,0,1.1,0,1.7-0.5v0.4H282.8z M282,30.2
				c0,0.2,0,0.4-0.3,0.6c-0.3,0.2-0.7,0.2-0.8,0.2c-0.5,0-0.9-0.2-0.9-0.6c0-0.7,1.6-0.8,2-0.8V30.2z"/>
		</g>
		<g>
			<path fill="#3366CC" d="M287.8,31.5v-3c0-0.7-0.1-1.6-1.4-1.6c-0.9,0-1.4,0.7-1.4,0.8v-0.7h-0.7v4.5h0.8v-2.4
				c0-0.7,0.2-1.5,1-1.5c1,0,1,0.7,1,1v2.9H287.8z"/>
		</g>
		<g>
			<path fill="#3366CC" d="M292,31.3l-0.2-0.6c-0.3,0.2-0.6,0.3-0.9,0.3c-0.4,0-0.5-0.3-0.5-0.8v-2.5h1.4v-0.6h-1.4v-1.3h-0.7v1.3
				h-0.9v0.6h0.8v2.7c0,0.6,0.1,1.3,0.8,1.3C291.2,31.7,291.7,31.4,292,31.3z"/>
		</g>
		<g>
			<path fill="#3366CC" d="M296.4,29.4c0-0.3,0-1.1-0.4-1.7c-0.4-0.6-1-0.7-1.4-0.7c-1.1,0-2,1.1-2,2.3c0,1.3,1,2.4,2.2,2.4
				c0.6,0,1.2-0.2,1.6-0.5l-0.1-0.6c-0.6,0.5-1.3,0.6-1.5,0.6c-0.8,0-1.4-0.7-1.5-1.7H296.4z M295.8,28.8h-2.5
				c0.2-0.8,0.7-1.3,1.3-1.3C295.1,27.6,295.7,27.9,295.8,28.8z"/>
		</g>
		<g>
			<path fill="#3366CC" d="M299.9,27.7V27c-0.9,0-1.4,0.5-1.7,1v-0.9h-0.7v4.5h0.7v-2.1C298.2,28.4,299,27.7,299.9,27.7z"/>
		</g>
		<g>
			<path fill="#3366CC" d="M303.3,27.7V27c-0.9,0-1.4,0.5-1.7,1v-0.9h-0.7v4.5h0.7v-2.1C301.6,28.4,302.4,27.7,303.3,27.7z"/>
		</g>
		<g>
			<path fill="#3366CC" d="M307.6,29.4c0-0.3,0-1.1-0.4-1.7c-0.4-0.6-1-0.7-1.4-0.7c-1.1,0-2,1.1-2,2.3c0,1.3,1,2.4,2.2,2.4
				c0.6,0,1.2-0.2,1.6-0.5l-0.1-0.6c-0.6,0.5-1.3,0.6-1.5,0.6c-0.8,0-1.4-0.7-1.5-1.7H307.6z M307,28.8h-2.5
				c0.2-0.8,0.7-1.3,1.3-1.3C306.4,27.6,306.9,27.9,307,28.8z"/>
		</g>
	</g>
	<path fill="none" stroke="#666666" stroke-width="0.797" stroke-miterlimit="10" d="M154.4,49v52.6"/>
	<path fill="#666666" d="M154.4,104.6l1.6-4.2l-1.6,1.4l-1.6-1.4L154.4,104.6z"/>
	<path fill="none" stroke="#666666" stroke-width="0.797" stroke-miterlimit="10" d="M154.4,104.6l1.6-4.2l-1.6,1.4l-1.6-1.4
		L154.4,104.6z"/>
	<path fill="none" stroke="#3366CC" stroke-width="0.797" stroke-miterlimit="10" d="M152.8,128.9c0,27.3-46.3,28-46.3,53.6"/>
	<path fill="#3366CC" d="M106.5,184.6l1.6-4.2l-1.6,1.4l-1.6-1.4L106.5,184.6z"/>
	<path fill="none" stroke="#3366CC" stroke-width="0.797" stroke-miterlimit="10" d="M106.5,184.2l1.6-4.2l-1.6,1.4l-1.6-1.4
		L106.5,184.2z"/>
</g>
</svg>
